<?xml version="1.0" standalone="no"?>
<!DOCTYPE svg PUBLIC "-//W3C//DTD SVG 20010904//EN"
 "http://www.w3.org/TR/2001/REC-SVG-20010904/DTD/svg10.dtd">
<svg version="1.0" xmlns="http://www.w3.org/2000/svg"
 width="800.000000pt" height="800.000000pt" viewBox="0 0 800.000000 800.000000"
 preserveAspectRatio="xMidYMid meet">

<g transform="translate(0.000000,800.000000) scale(0.100000,-0.100000)"
fill="#000000" stroke="none">
<path d="M1630 5720 l0 -170 -280 0 -280 0 0 -1730 0 -1730 2935 0 2935 0 0
1730 0 1730 -275 0 -275 0 0 170 0 171 -957 -3 -958 -3 -97 -34 c-122 -42
-224 -101 -309 -179 l-66 -61 -44 46 c-57 60 -170 133 -261 171 -152 63 -135
62 -1148 62 l-920 0 0 -170z m1910 -51 c112 -31 203 -83 292 -169 l79 -75 -3
-1393 -3 -1393 -35 26 c-50 38 -173 99 -255 126 l-70 24 -857 3 -858 3 0 1434
0 1435 818 0 c796 0 819 -1 892 -21z m2648 -1411 l-3 -1433 -855 -5 c-785 -5
-860 -7 -915 -24 -83 -25 -198 -79 -256 -121 l-49 -35 0 1391 0 1391 36 44
c76 92 217 178 342 209 46 11 216 13 880 14 l822 1 -2 -1432z m-4558 -273 l0
-1365 943 -2 942 -3 73 -27 c40 -14 96 -41 125 -59 51 -33 247 -215 247 -231
0 -4 -604 -7 -1342 -6 l-1343 3 -3 1528 -2 1527 180 0 180 0 0 -1365z m5110
-165 l0 -1530 -1340 0 c-737 0 -1340 4 -1340 8 0 5 44 53 98 108 99 102 156
140 279 187 58 22 60 22 1003 27 l945 5 3 1363 2 1362 175 0 175 0 0 -1530z"/>
</g>
</svg>
